<svg xmlns="http://www.w3.org/2000/svg" viewBox="0 0 500 300" width="500" height="300">
  <rect width="500" height="300" fill="#0082BB"/>
  <g fill="#FFFFFF" transform="translate(30, 40)">
    <!-- H -->
    <path d="M 30,30 L 52,30 L 52,102 L 105,102 L 105,124 L 52,124 L 52,200 L 30,200 Z" />
    <path d="M 105,30 L 127,30 L 127,200 L 105,200 Z" />
    <!-- C -->
    <path d="M 235,35 C 180,35 145,72 145,115 C 145,158 180,195 235,195 C 265,195 285,185 298,172 L 283,155 C 272,165 256,173 235,173 C 193,173 169,145 169,115 C 169,85 193,57 235,57 C 256,57 272,65 283,75 L 298,58 C 285,45 265,35 235,35 Z" />
    <!-- P -->
    <path d="M 320,30 L 375,30 C 410,30 435,48 435,80 C 435,112 410,130 375,130 L 342,130 L 342,200 L 320,200 Z M 342,52 L 342,108 L 372,108 C 395,108 411,97 411,80 C 411,63 395,52 372,52 Z" />
  </g>
</svg>
